<svg version="1.0" xmlns="http://www.w3.org/2000/svg" width="346.667" height="346.667" viewBox="0 0 260 260"><path d="M0 130v130h260V0H0v130zM134.8 7.9c1.2 2.1 2.2 5.3 2.2 7 0 3.6-.2 3.5 3.7 1.6 4.1-2.1 5.9-1.1 7.9 4.1 1.9 4.9 1.3 6.5-1.3 4.2-4.8-4.1-8.3-2.8-8.3 3.2 0 4.6 3.7 9 7.5 9 3.4 0 12.5-8.4 12.5-11.5 0-2.7.8-3.5 2.6-2.8 1.8.7 1.8 4.3.1 4.3-1.5 0-3.9 4.4-3 5.4 1.2 1.1 2.3.6 2.3-1.1 0-1.2.3-1.4 1.1-.6 1.6 1.6.2 3.3-2.7 3.3-2.1 0-2.4.4-2.4 3.8 0 4.8 4 9.3 6.7 7.6 3.2-2 4-4.4 2-5.9-1.5-1.1-1.7-1.7-.7-3.5.9-1.7 1.4-1.9 2.6-.9.8.6 1.4 1.8 1.4 2.5 0 2.1 1 1.7 3.2-1.2 1.6-1.9 2.8-2.4 5.2-2.2 2.5.2 3.2.8 3.4 3 .2 1.9-.5 3.5-2.1 5.2l-2.4 2.4 2.4 1.3 2.5 1.3-2.2 1.8c-2.9 2.4-5 2.3-5-.2 0-2.4-1.1-2.5-5-.5-2.3 1.2-3 2.2-3 4.5 0 3.4-1.1 3.8-3.1 1.3-.8-.9-3.6-2.6-6.4-3.8-15.1-6.7-35.7-5.9-52.3 2-5.9 2.8-7.4 3.2-7.7 2-.3-.8-.7-2.1-.9-2.9-.7-2.2-5.4-4.9-7.2-4.2-1 .4-1.4 1.2-1 2.2.5 1.2.1 1.4-1.7.9-3.8-1.2-4.4-2.5-2-4.2l2.3-1.5-2.6-3.1c-1.4-1.6-2.4-3.9-2.2-5.1.4-3.1 5.3-3.4 8.3-.6l2.3 2.2 1.1-2.1c1.6-2.9 3.9-2.6 5.1.5 1.3 3.4 1.3 3.4-1 3.4-2.5 0-2.5 1.1-.2 4 1.8 2.2 1.9 2.2 4.5.5 2.3-1.4 2.7-2.5 2.7-6.1 0-3.9-.2-4.4-2.2-4.1-1.7.1-2.4-.4-2.6-2.1-.2-1.2.1-2.2.7-2.2s1.1.8 1.1 1.7c0 1.2.3 1.4 1.1.6 1.4-1.4.2-5.3-1.7-5.3-1.6 0-1.9-3.6-.4-4.5 1.4-.8 4.2 1.4 3.7 2.9-.6 1.7 1.2 4.6 2.8 4.6.8 0 1.5-.5 1.5-1 0-.6-.4-1-1-1-.5 0-1-.5-1-1 0-1.4 1.3-1.2 3.5.4 1.9 1.4 1.9 1.5.2 3.4-1.8 1.9-1.7 2 1.6 4.1 2.6 1.6 4.1 1.9 5.8 1.2 4.5-1.7 8.6-8.4 6.9-11.1-.8-1.3-5.3-1-9.4.6-1.5.6-1.7.3-1.3-1.2.3-1 .8-3.1 1.1-4.6.8-3.5 3.9-5.3 6.5-3.8 2.2 1.1 2.5.8 3.5-3.2.7-3.1 5.2-8.8 7-8.8.7 0 2.2 1.7 3.4 3.9zM154.6 29c0 2-.7 2.5-1.9 1.3-.4-.3-.2-1.2.4-2 1.5-1.7 1.5-1.7 1.5.7zm-9.4 23.6c6.4 1.5 12.9 5.3 15.3 9l1.5 2.3-4.8-2c-7.4-3.2-18.9-5.9-25.4-5.9-7.8 0-20 2.6-26.8 5.6l-5.5 2.5 3-3.1c4-4.1 14.1-9 20.7-10 6.3-.9 14.2-.3 22 1.6zm-10.4 7.6c.7.7 1.2 2.1 1.2 3.3 0 2.9-1.9 4.5-5.2 4.5-3.5 0-5.2-2.8-3.8-6.4.7-2 1.7-2.6 3.8-2.6 1.5 0 3.3.5 4 1.2zm-14 4.4c.2 1.3-.4 2.4-1.3 2.8-2.4.9-3.5-.1-3.5-3 0-2.1.4-2.5 2.3-2.2 1.3.2 2.3 1.1 2.5 2.4zm25.9-1c.4 1.1-.1 2.2-1.2 3.1-1.6 1.1-2.1 1.1-3.3-.1-.8-.8-1.2-2.2-.9-3 .8-2.1 4.6-2.1 5.4 0zm-36 5.8c-.4.9-1.3 1.3-2.2 1-1.8-.7-2-3.1-.2-3.7 1.7-.6 3.1.9 2.4 2.7zm44.3-.9c0 1.6-2.7 2.7-3.6 1.4-.3-.5-.3-1.6 0-2.4.6-1.7 3.6-.9 3.6 1zm-30 19.8v11.3l-5.8 5.7c-3.2 3.1-6 5.7-6.2 5.7-1.2 0 .3-13 1.6-14.1.9-.7 1.4-3.1 1.4-6.5V85H81v-8h44v11.3zm56-7.3v4h-35v12.5l-26.5 24.8L93 147.2V160h-8v-17.6l26-24.8 26-24.7V77h44v4zm-87.8 31.5l.3 16.6-3.5 3.4c-2 1.9-3.9 3.5-4.3 3.5-.4 0-.7-9-.7-20V96h7.9l.3 16.5zM172 99.7c0 2.2-2.4 5.2-11.2 14l-11.1 11.1 3.4 4.4c1.8 2.3 6.8 8.7 11.1 14 4.3 5.3 7.8 10.6 7.8 11.8 0 1.8-.5 2.1-3.9 1.8-3.7-.3-4.6-1.2-17.4-16.2l-13.5-15.8 13.1-12.7c7.1-6.9 13.5-13.1 14.1-13.8.6-.7 2.6-1.2 4.4-1.3 2.8 0 3.2.3 3.2 2.7zm0 28.3c0 9.9-.3 18-.7 18-.5 0-2-1.8-3.5-3.9-2.7-3.7-2.8-4.5-2.8-15.2 0-10.9.1-11.4 2.7-14.1 1.5-1.5 3-2.8 3.5-2.8.4 0 .8 8.1.8 18zm-36.3 17.3c8.6 10.5 9 11.3 7.7 13.4-.8 1.2-1.4 4.3-1.4 6.8v4.5h39v9h-46v-22.6l-4.4-4.9-4.4-5-2.3 2.2c-2 2-2.1 2.3-.6 2.3s1.7 1.4 1.7 14v14H81v-8h36v-5.5c0-4.8-.2-5.5-2-5.5s-2-.7-2-6.7v-6.7l6.2-6.3c3.4-3.5 6.5-6.3 6.8-6.2.3 0 4.6 5 9.7 11.2zm47.5 45.7c3.3 2.4 3.8 2.5 3.8.5 0-.8.5-1.5 1-1.5.6 0 1 2.9 1 6.6 0 4.1-.4 6.3-1 5.9-.5-.3-1-1.5-1-2.6 0-1-1.5-3.5-3.3-5.5-5.9-6.5-16.5-5.5-20.3 1.8-3.6 7-2.8 20.5 1.7 26.2 3.8 4.8 13.4 5.1 17.2.5 2.5-3.1 2-9.2-.8-9.7-1.1-.2-2.4-.8-2.9-1.3-.6-.5 2.5-.9 7.8-.9 5.5 0 8.5.4 8.1 1-.3.5-1.5 1-2.6 1-1.5 0-1.9.7-2 3.7-.2 7.6-.1 7.4-6.4 9.4-11.1 3.5-18.5 2.1-24.2-4.4-2.9-3.4-5.3-9-5.3-12.8 0-.8.7-3.9 1.5-6.7 1.8-6 6.9-11.6 11.8-13.1 4.6-1.5 12.7-.5 15.9 1.9zm35.6-1c3.9 2.4 4.2 2.4 4.2.5 0-.8.5-1.5 1-1.5.6 0 1 2.2 1 5 0 5.7-1.2 6.4-3 2-1.6-3.9-4.6-6-8.4-6-5.4 0-8.4 5.2-5.3 9.3.6.9 4.4 3.2 8.3 5.1 8.5 4.1 11.4 7.4 11.4 12.7 0 2.9-.8 4.7-2.9 7.1-2.7 3-3.4 3.3-8.9 3.3-4.5 0-6.5-.5-8.1-1.9-2.1-1.9-2.2-1.9-3.5 0-1.3 1.7-1.4 1.2-1.7-4.4-.2-3.4-.1-6.1.3-6 .4.2 1.8 2.3 3 4.8 3.7 7.3 11.8 8.6 16.2 2.7 3.4-4.5 1.5-7.5-7.9-12.4-9.2-4.8-11.5-7.2-11.5-12 0-4.6 1.5-7.2 5.3-8.8 4.4-1.9 6.7-1.8 10.5.5zm16-1.1c.8.4 1.2 1.9 1 3.2-.4 3.3-5.3 4-6.3.9-1.1-3.6 2.2-6.1 5.3-4.1zm-183.4 1c-.5.5-1.8 1.1-2.9 1.3-1.8.3-2 1.2-2.3 8.7l-.3 8.3 7.6-6.8c7.8-7 9.1-9.6 5.3-10.9-2-.7-1.8-.9 1.4-1.2 2.1-.2 5.7-.3 8-.1l4.3.3-4.5 2.1c-2.5 1.2-6.9 4.7-9.9 7.8l-5.5 5.6 10.1 9.9c5.5 5.5 11.2 10.3 12.7 10.7 1.4.3 2.3 1 2 1.5-.7 1.2-19.4 1.2-19.4 0 0-.5 1-1.1 2.2-1.3 1.2-.2 2.3-.8 2.5-1.4.2-.6-2.8-4.6-6.8-8.8-8.8-9.5-10.1-9.2-9.7 2.3.3 7 .5 7.6 2.6 7.9 1.2.2 2.2.7 2.2 1.1 0 .4-3.8.8-8.5.8s-8.5-.4-8.5-.9c0-.4.8-.8 1.8-.8 3.8 0 4.2-1.9 4.2-18.2 0-14.3-.2-15.8-1.9-16.7-1-.6-2.1-.8-2.4-.5-.3.3-.8.1-1.2-.5-.4-.8 2.3-1.1 8.6-1.1 5.6 0 8.9.4 8.3.9zm48.6 0c0 .5-1.2 1.1-2.7 1.3l-2.8.3-.3 15.9c-.3 16.5.2 18.6 3.9 18.6 1.1 0 1.9.4 1.9.9 0 1-15.9 1.2-17.5.2-.5-.3.4-.8 2-1.1l3-.5.3-16.7c.2-15.5.1-16.8-1.6-17.7-1.1-.6-2.2-.8-2.5-.5-.3.3-.8.1-1.2-.5-.4-.8 2.3-1.1 8.4-1.1 5 0 9.1.4 9.1.9zm28.5 13.6l11 14.5.3-12.1c.3-12.6-.3-14.9-3.9-14.9-1.1 0-1.9-.5-1.9-1 0-.6 3.1-1 7.2-1 7.2 0 7.7.4 3.6 2.4-2.2 1.1-2.3 1.6-2.6 18.9-.1 10.5-.6 17.7-1.2 17.7-.5 0-6.9-8-14.2-17.7l-13.3-17.6-.3 14.3c-.3 15.3.6 19 4.8 19 1.1 0 2 .4 2 .9 0 1-13.5 1-14.5 0-.3-.4.7-.9 2.3-1.2 3.8-.8 4.2-2.3 4.2-17.7 0-14.3-.5-17-3.1-17-1 0-2.1-.5-2.4-1-.4-.6 1.6-1 5.2-1h5.8l11 14.5zm-29.6 34.6c-1.7 1.7-2 2.9-1.5 5.8.3 2 1.3 4.2 2.3 4.8 1.5 1.2 1.5 1.3 0 1.3-2.1 0-4.7-3.8-4.7-7 0-3.1 2.6-7 4.6-7 1 0 .8.6-.7 2.1zm27.7-1.3c-.3.5.4 2.3 1.5 4 2.2 3.7 2.6 9.2.6 9.2-.9 0-1.2-.9-1-2.8.3-1.9-.5-4-2.6-7L122 236h2.6c1.4 0 2.3.4 2 .8zm7.7 1.2c-1 1.1-1.8 2-1.9 2-.1 0 0-.9.3-2s1.2-2 1.9-2c1.1 0 1 .5-.3 2zm21 4.2c1.6 3.6 2.3 6.6 1.8 7.1-.5.5-1.6-1.1-2.6-3.8-1-2.6-2.7-5.7-3.7-7.1-1.9-2.4-1.9-2.4 0-2.4 1.3 0 2.6 1.7 4.5 6.2zm9.9-.1c-.3 4.4 0 6.4 1 7 .9.6.6.9-1.2.9-2.4 0-2.5-.2-2.5-7-.1-5.6.2-7 1.5-7 1.2 0 1.4 1.1 1.2 6.1zm-57.2-3.5c0 .8-.4 1.2-1 .9-.5-.3-1-1-1-1.6 0-.5.5-.9 1-.9.6 0 1 .7 1 1.6zm-47 4.5c-6.5 1-26 .8-26.6-.3-.3-.5 6.8-.7 15.8-.7 13.1.1 15.2.3 10.8 1zm30-.1c0 1-18.8.3-19.9-.6-.2-.2 4.1-.4 9.7-.4 6.3 0 10.2.4 10.2 1zm61.2 5.7c.8 1 .5 1.3-.9 1.3-1.6 0-1.8-.6-1.4-4.3.5-3.7.6-3.8.9-1.2.2 1.6.8 3.6 1.4 4.2zm45.3-5.6c-7.3 1-25.4.8-26.1-.3-.3-.4 6.8-.7 15.8-.7 13.3.1 15.2.3 10.3 1zm30.5 0c0 .7-3.1.8-9.7.3-5.4-.4-10-.8-10.2-1-.2-.2 4.1-.4 9.7-.4 6.5 0 10.2.4 10.2 1.1zm-119.7 3.3c-.3 1.3-1.4 2.6-2.5 2.9-1.5.4-1.7.3-.7-.9.6-.7.9-2.1.5-2.9-.3-1 .1-1.5 1.3-1.5 1.4 0 1.7.6 1.4 2.4z"/><path d="M128.5 32c-1.8 1.9-1.7 2.1.1 5.5 1 1.9 2.1 3.5 2.5 3.5.3 0 1.4-1.8 2.4-4 1.8-3.9 1.8-4.1-.1-5.5-2.5-1.9-2.8-1.9-4.9.5zm102.4 158c-.5 2.8-.3 3.3 1.4 3.6 2.3.3 3.4-2.3 1.7-3.9-.7-.7-1-.8-.8-.2.3.5-.1 1.6-.9 2.4-1.3 1.2-1.4 1.1-.8-.8.3-1.1.4-2.1.1-2.1-.3 0-.7.4-.7 1z"/></svg>