<?xml version="1.0" standalone="no"?>
<!DOCTYPE svg PUBLIC "-//W3C//DTD SVG 20010904//EN"
 "http://www.w3.org/TR/2001/REC-SVG-20010904/DTD/svg10.dtd">
<svg version="1.0" xmlns="http://www.w3.org/2000/svg"
 width="260.000000pt" height="260.000000pt" viewBox="0 0 260.000000 260.000000"
 preserveAspectRatio="xMidYMid meet">
<metadata>
Created by potrace 1.11, written by Peter Selinger 2001-2013
</metadata>
<g transform="translate(0.000000,260.000000) scale(0.100000,-0.100000)"
fill="#000000" stroke="none">
<path d="M0 1300 l0 -1300 1300 0 1300 0 0 1300 0 1300 -1300 0 -1300 0 0
-1300z m1348 1221 c12 -21 22 -53 22 -70 0 -36 -2 -35 37 -16 41 21 59 11 79
-41 19 -49 13 -65 -13 -42 -48 41 -83 28 -83 -32 0 -46 37 -90 75 -90 34 0
125 84 125 115 0 27 8 35 26 28 18 -7 18 -43 1 -43 -15 0 -39 -44 -30 -54 12
-11 23 -6 23 11 0 12 3 14 11 6 16 -16 2 -33 -27 -33 -21 0 -24 -4 -24 -38 0
-48 40 -93 67 -76 32 20 40 44 20 59 -15 11 -17 17 -7 35 9 17 14 19 26 9 8
-6 14 -18 14 -25 0 -21 10 -17 32 12 16 19 28 24 52 22 25 -2 32 -8 34 -30 2
-19 -5 -35 -21 -52 l-24 -24 24 -13 25 -13 -22 -18 c-29 -24 -50 -23 -50 2 0
24 -11 25 -50 5 -23 -12 -30 -22 -30 -45 0 -34 -11 -38 -31 -13 -8 9 -36 26
-64 38 -151 67 -357 59 -523 -20 -59 -28 -74 -32 -77 -20 -3 8 -7 21 -9 29 -7
22 -54 49 -72 42 -10 -4 -14 -12 -10 -22 5 -12 1 -14 -17 -9 -38 12 -44 25
-20 42 l23 15 -26 31 c-14 16 -24 39 -22 51 4 31 53 34 83 6 l23 -22 11 21
c16 29 39 26 51 -5 13 -34 13 -34 -10 -34 -25 0 -25 -11 -2 -40 18 -22 19 -22
45 -5 23 14 27 25 27 61 0 39 -2 44 -22 41 -17 -1 -24 4 -26 21 -2 12 1 22 7
22 6 0 11 -8 11 -17 0 -12 3 -14 11 -6 14 14 2 53 -17 53 -16 0 -19 36 -4 45
14 8 42 -14 37 -29 -6 -17 12 -46 28 -46 8 0 15 5 15 10 0 6 -4 10 -10 10 -5
0 -10 5 -10 10 0 14 13 12 35 -4 19 -14 19 -15 2 -34 -18 -19 -17 -20 16 -41
26 -16 41 -19 58 -12 45 17 86 84 69 111 -8 13 -53 10 -94 -6 -15 -6 -17 -3
-13 12 3 10 8 31 11 46 8 35 39 53 65 38 22 -11 25 -8 35 32 7 31 52 88 70 88
7 0 22 -17 34 -39z m198 -211 c0 -20 -7 -25 -19 -13 -4 3 -2 12 4 20 15 17 15
17 15 -7z m-94 -236 c64 -15 129 -53 153 -90 l15 -23 -48 20 c-74 32 -189 59
-254 59 -78 0 -200 -26 -268 -56 l-55 -25 30 31 c40 41 141 90 207 100 63 9
142 3 220 -16z m-104 -76 c7 -7 12 -21 12 -33 0 -29 -19 -45 -52 -45 -35 0
-52 28 -38 64 7 20 17 26 38 26 15 0 33 -5 40 -12z m-140 -44 c2 -13 -4 -24
-13 -28 -24 -9 -35 1 -35 30 0 21 4 25 23 22 13 -2 23 -11 25 -24z m259 10 c4
-11 -1 -22 -12 -31 -16 -11 -21 -11 -33 1 -8 8 -12 22 -9 30 8 21 46 21 54 0z
m-360 -58 c-4 -9 -13 -13 -22 -10 -18 7 -20 31 -2 37 17 6 31 -9 24 -27z m443
9 c0 -16 -27 -27 -36 -14 -3 5 -3 16 0 24 6 17 36 9 36 -10z m-300 -198 l0
-113 -58 -57 c-32 -31 -60 -57 -62 -57 -12 0 3 130 16 141 9 7 14 31 14 65 l0
54 -175 0 -175 0 0 40 0 40 220 0 220 0 0 -113z m560 73 l0 -40 -175 0 -175 0
0 -62 0 -63 -265 -248 -265 -249 0 -64 0 -64 -40 0 -40 0 0 88 0 88 260 248
260 247 0 79 0 80 220 0 220 0 0 -40z m-878 -315 l3 -166 -35 -34 c-20 -19
-39 -35 -43 -35 -4 0 -7 90 -7 200 l0 200 40 0 39 0 3 -165z m788 128 c0 -22
-24 -52 -112 -140 l-111 -111 34 -44 c18 -23 68 -87 111 -140 43 -53 78 -106
78 -118 0 -18 -5 -21 -39 -18 -37 3 -46 12 -174 162 l-135 158 131 127 c71 69
135 131 141 138 6 7 26 12 44 13 28 0 32 -3 32 -27z m0 -283 c0 -99 -3 -180
-7 -180 -5 0 -20 18 -35 39 -27 37 -28 45 -28 152 0 109 1 114 27 141 15 15
30 28 35 28 4 0 8 -81 8 -180z m-363 -173 c86 -105 90 -113 77 -134 -8 -12
-14 -43 -14 -68 l0 -45 195 0 195 0 0 -45 0 -45 -230 0 -230 0 0 113 0 113
-44 49 -44 50 -23 -22 c-20 -20 -21 -23 -6 -23 15 0 17 -14 17 -140 l0 -140
-220 0 -220 0 0 40 0 40 180 0 180 0 0 55 c0 48 -2 55 -20 55 -18 0 -20 7 -20
67 l0 67 62 63 c34 35 65 63 68 62 3 0 46 -50 97 -112z m475 -457 c33 -24 38
-25 38 -5 0 8 5 15 10 15 6 0 10 -29 10 -66 0 -41 -4 -63 -10 -59 -5 3 -10 15
-10 26 0 10 -15 35 -33 55 -59 65 -165 55 -203 -18 -36 -70 -28 -205 17 -262
38 -48 134 -51 172 -5 25 31 20 92 -8 97 -11 2 -24 8 -29 13 -6 5 25 9 78 9
55 0 85 -4 81 -10 -3 -5 -15 -10 -26 -10 -15 0 -19 -7 -20 -37 -2 -76 -1 -74
-64 -94 -111 -35 -185 -21 -242 44 -29 34 -53 90 -53 128 0 8 7 39 15 67 18
60 69 116 118 131 46 15 127 5 159 -19z m356 10 c39 -24 42 -24 42 -5 0 8 5
15 10 15 6 0 10 -22 10 -50 0 -57 -12 -64 -30 -20 -16 39 -46 60 -84 60 -54 0
-84 -52 -53 -93 6 -9 44 -32 83 -51 85 -41 114 -74 114 -127 0 -29 -8 -47 -29
-71 -27 -30 -34 -33 -89 -33 -45 0 -65 5 -81 19 -21 19 -22 19 -35 0 -13 -17
-14 -12 -17 44 -2 34 -1 61 3 60 4 -2 18 -23 30 -48 37 -73 118 -86 162 -27
34 45 15 75 -79 124 -92 48 -115 72 -115 120 0 46 15 72 53 88 44 19 67 18
105 -5z m160 11 c8 -4 12 -19 10 -32 -4 -33 -53 -40 -63 -9 -11 36 22 61 53
41z m-1834 -10 c-5 -5 -18 -11 -29 -13 -18 -3 -20 -12 -23 -87 l-3 -83 76 68
c78 70 91 96 53 109 -20 7 -18 9 14 12 21 2 57 3 80 1 l43 -3 -45 -21 c-25
-12 -69 -47 -99 -78 l-55 -56 101 -99 c55 -55 112 -103 127 -107 14 -3 23 -10
20 -15 -7 -12 -194 -12 -194 0 0 5 10 11 22 13 12 2 23 8 25 14 2 6 -28 46
-68 88 -88 95 -101 92 -97 -23 3 -70 5 -76 26 -79 12 -2 22 -7 22 -11 0 -4
-38 -8 -85 -8 -47 0 -85 4 -85 9 0 4 8 8 18 8 38 0 42 19 42 182 0 143 -2 158
-19 167 -10 6 -21 8 -24 5 -3 -3 -8 -1 -12 5 -4 8 23 11 86 11 56 0 89 -4 83
-9z m486 0 c0 -5 -12 -11 -27 -13 l-28 -3 -3 -159 c-3 -165 2 -186 39 -186 11
0 19 -4 19 -9 0 -10 -159 -12 -175 -2 -5 3 4 8 20 11 l30 5 3 167 c2 155 1
168 -16 177 -11 6 -22 8 -25 5 -3 -3 -8 -1 -12 5 -4 8 23 11 84 11 50 0 91 -4
91 -9z m285 -136 l110 -145 3 121 c3 126 -3 149 -39 149 -11 0 -19 5 -19 10 0
6 31 10 72 10 72 0 77 -4 36 -24 -22 -11 -23 -16 -26 -189 -1 -105 -6 -177
-12 -177 -5 0 -69 80 -142 177 l-133 176 -3 -143 c-3 -153 6 -190 48 -190 11
0 20 -4 20 -9 0 -10 -135 -10 -145 0 -3 4 7 9 23 12 38 8 42 23 42 177 0 143
-5 170 -31 170 -10 0 -21 5 -24 10 -4 6 16 10 52 10 l58 0 110 -145z m-296
-346 c-17 -17 -20 -29 -15 -58 3 -20 13 -42 23 -48 15 -12 15 -13 0 -13 -21 0
-47 38 -47 70 0 31 26 70 46 70 10 0 8 -6 -7 -21z m277 13 c-3 -5 4 -23 15
-40 22 -37 26 -92 6 -92 -9 0 -12 9 -10 28 3 19 -5 40 -26 70 l-31 42 26 0
c14 0 23 -4 20 -8z m77 -12 c-10 -11 -18 -20 -19 -20 -1 0 0 9 3 20 3 11 12
20 19 20 11 0 10 -5 -3 -20z m210 -42 c16 -36 23 -66 18 -71 -5 -5 -16 11 -26
38 -10 26 -27 57 -37 71 -19 24 -19 24 0 24 13 0 26 -17 45 -62z m99 1 c-3
-44 0 -64 10 -70 9 -6 6 -9 -12 -9 -24 0 -25 2 -25 70 -1 56 2 70 15 70 12 0
14 -11 12 -61z m-572 35 c0 -8 -4 -12 -10 -9 -5 3 -10 10 -10 16 0 5 5 9 10 9
6 0 10 -7 10 -16z m-470 -45 c-65 -10 -260 -8 -266 3 -3 5 68 7 158 7 131 -1
152 -3 108 -10z m300 1 c0 -10 -188 -3 -199 6 -2 2 41 4 97 4 63 0 102 -4 102
-10z m612 -57 c8 -10 5 -13 -9 -13 -16 0 -18 6 -14 43 5 37 6 38 9 12 2 -16 8
-36 14 -42z m453 56 c-73 -10 -254 -8 -261 3 -3 4 68 7 158 7 133 -1 152 -3
103 -10z m305 0 c0 -7 -31 -8 -97 -3 -54 4 -100 8 -102 10 -2 2 41 4 97 4 65
0 102 -4 102 -11z m-1197 -33 c-3 -13 -14 -26 -25 -29 -15 -4 -17 -3 -7 9 6 7
9 21 5 29 -3 10 1 15 13 15 14 0 17 -6 14 -24z"/>
<path d="M1285 2280 c-18 -19 -17 -21 1 -55 10 -19 21 -35 25 -35 3 0 14 18
24 40 18 39 18 41 -1 55 -25 19 -28 19 -49 -5z"/>
<path d="M2309 700 c-5 -28 -3 -33 14 -36 23 -3 34 23 17 39 -7 7 -10 8 -8 2
3 -5 -1 -16 -9 -24 -13 -12 -14 -11 -8 8 3 11 4 21 1 21 -3 0 -7 -4 -7 -10z"/>
</g>
</svg>
