<svg xmlns="http://www.w3.org/2000/svg" width="898.711" height="898.711"><path d="M391.363 335.511c37.299 0 67.5-30.199 67.5-67.5 0-37.3-30.2-67.5-67.5-67.5s-67.5 30.2-67.5 67.5c0 37.2 30.2 67.5 67.5 67.5z"/><path d="M173.563 783.311v90.4c0 13.8 11.2 25 25 25h351.7c13.8 0 25-11.2 25-25v-88.1h98.2c39.3 0 71.399-32.101 71.399-71.4v-125l57.5-1.1c22.8-.4 37.2-24.801 26.5-44.9l-62.8-118.4c-14-26.399-21.3-55.8-21.3-85.6 0-188.3-153.4-340.7-342.101-339.2-188.099 1.5-338.299 154.601-336.399 342.7.6 54.2 13.9 105.4 37 150.6 46.101 89.9 70.301 189.2 70.301 290zm38.1-526.999c0-6.4 3.8-12.101 9.7-14.601l37-15.8c3.9-1.7 7-4.9 8.601-8.8.199-.5.399-.9.5-1.4 1.6-3.899 1.6-8.2 0-12.1l-15.2-36.9c-2.4-5.899-1.101-12.8 3.5-17.3l16.899-16.9c4.5-4.5 11.301-5.899 17.2-3.5l37.5 15.101c3.8 1.5 8.101 1.5 12 0 .3-.101.7-.3 1-.4 4-1.6 7.2-4.7 8.9-8.7l15.5-37.1c2.5-5.9 8.3-9.8 14.7-9.8h23.899c6.4 0 12.101 3.8 14.601 9.7l16 37.5c1.699 3.899 4.8 6.899 8.699 8.5.2.1.4.199.601.199 3.899 1.601 8.3 1.7 12.2 0l37.399-15.399c5.9-2.4 12.8-1.101 17.3 3.5l16.9 16.899c4.5 4.5 5.9 11.301 3.5 17.2l-15.2 38c-1.5 3.9-1.5 8.2.101 12 0 .101.1.2.1.3 1.6 4 4.7 7.2 8.7 8.9l37.6 15.7c5.9 2.5 9.8 8.3 9.8 14.7v23.899c0 6.4-3.8 12.101-9.699 14.601l-37.801 16.1c-3.899 1.7-7 4.8-8.6 8.8l-.2.5c-1.5 3.8-1.5 8.101.101 11.9l15.6 37.6c2.5 5.9 1.1 12.8-3.5 17.3l-16.9 16.9c-4.5 4.5-11.3 5.899-17.199 3.5l-38-15.2a16.07 16.07 0 00-12 .1c-.2.101-.5.2-.7.301-3.9 1.6-7 4.699-8.7 8.6l-15.4 37.5c-2.5 5.9-8.3 9.8-14.699 9.8h-23.9c-6.4 0-12.1-3.8-14.6-9.7l-15.9-37.199c-1.7-4-5-7.101-9-8.601-.3-.1-.7-.3-1-.399-3.9-1.5-8.2-1.5-12 0l-37.1 15.3c-5.9 2.399-12.801 1.1-17.301-3.5l-16.899-16.9c-4.5-4.5-5.9-11.3-3.5-17.2l15-37.3c1.6-3.899 1.5-8.199-.101-12.1-.199-.5-.399-.9-.6-1.4-1.6-4-4.7-7.199-8.7-8.8l-36.8-15.3c-5.9-2.5-9.8-8.3-9.8-14.7v-23.899h-.102z"/></svg>